Coordinates
version=1
nRows=29
nColumns=22
inDegrees=yes

Units are S.I. units (second, meters, Newtons, ...)
If the header above contains a line with 'inDegrees', this indicates whether rotational values are in degrees (yes) or radians (no).

endheader
time	pelvis_tilt	pelvis_list	pelvis_rotation	pelvis_tx	pelvis_ty	pelvis_tz	hip_flexion_r	hip_adduction_r	hip_rotation_r	knee_angle_r	ankle_angle_r	subtalar_angle_r	hip_flexion_l	hip_adduction_l	hip_rotation_l	knee_angle_l	ankle_angle_l	subtalar_angle_l	lumbar_extension	lumbar_bending	lumbar_rotation
      0.01000000	     -1.17111722	      2.00074364	    -24.64372897	     -0.89971682	      0.90236817	     -0.35067010	     -6.40957635	     -0.86176924	     -1.05362882	      1.49545275	     15.44472265	     -0.21959843	     -0.91795249	      1.41372683	     -8.26505077	     -7.82718285	     13.81261997	      2.80089346	     -2.67472035	     -3.18466448	      3.28180611
      0.02000000	     -1.17191218	      2.00114740	    -24.65498455	     -0.89966927	      0.90236308	     -0.35056130	     -6.41343185	     -0.85791781	     -1.05378044	      1.49403769	     15.44473980	     -0.22108532	     -0.92094456	      1.40998917	     -8.26374156	     -7.83228984	     13.81003100	      2.80113844	     -2.67091996	     -3.19664365	      3.28089448
      0.03000000	     -1.17240264	      2.00103427	    -24.66831294	     -0.89962405	      0.90236002	     -0.35044321	     -6.41777086	     -0.85343670	     -1.05295061	      1.49304237	     15.44464210	     -0.22246370	     -0.92298585	      1.40577131	     -8.26257852	     -7.84102661	     13.80761256	      2.80113370	     -2.66819476	     -3.20927822	      3.28044818
      0.04000000	     -1.16222377	      2.00340002	    -24.70034464	     -0.89964244	      0.90237107	     -0.35030994	     -6.43103194	     -0.85910660	     -1.00229496	      1.50268657	     15.44283219	     -0.24694500	     -0.90467289	      1.40290619	     -8.33453547	     -7.90254228	     13.79483899	      2.79749442	     -2.68742774	     -3.23384119	      3.30867845
      0.05000000	     -1.16276575	      2.00132172	    -24.71949961	     -0.89961174	      0.90237102	     -0.35018443	     -6.43419226	     -0.85259224	     -1.00141979	      1.50135454	     15.44239553	     -0.24791022	     -0.90615560	      1.39752016	     -8.33035972	     -7.91325005	     13.79523102	      2.79729401	     -2.68378190	     -3.24390848	      3.30653607
      0.06000000	     -1.17163438	      1.98410013	    -24.76356995	     -0.89968959	      0.90237076	     -0.35005100	     -6.42259977	     -0.83173646	     -0.92015911	      1.49261559	     15.43174888	     -0.27210367	     -0.85726591	      1.36317730	     -8.42263527	     -8.01040824	     13.83495980	      2.78140690	     -2.69529588	     -3.23531380	      3.34296392
      0.07000000	     -1.17003104	      1.97994281	    -24.78895979	     -0.89974298	      0.90238298	     -0.34995267	     -6.41522820	     -0.82586503	     -0.89854168	      1.47942541	     15.42665675	     -0.27744158	     -0.83863531	      1.35463197	     -8.41770488	     -8.05485381	     13.84010591	      2.77748229	     -2.70942781	     -3.24482046	      3.35657264
      0.08000000	     -1.19600261	      1.96650006	    -24.83400151	     -0.89984385	      0.90235967	     -0.34982023	     -6.37932417	     -0.79892629	     -0.83108729	      1.46495144	     15.42186011	     -0.29784572	     -0.77258148	      1.31588899	     -8.52468331	     -8.14366494	     13.88300287	      2.75133309	     -2.69940201	     -3.23342241	      3.38453612
      0.09000000	     -1.19632070	      1.96429224	    -24.85736890	     -0.89986973	      0.90236371	     -0.34971359	     -6.37766593	     -0.79234146	     -0.83076604	      1.46533559	     15.42137414	     -0.29847766	     -0.76942022	      1.31091588	     -8.51891085	     -8.15460765	     13.88347283	      2.75067530	     -2.70197085	     -3.24359970	      3.38142994
      0.10000000	     -1.21701662	      1.94585495	    -24.89911863	     -0.89998076	      0.90234487	     -0.34960276	     -6.34267050	     -0.76430461	     -0.75033098	      1.43790649	     15.41570209	     -0.31338323	     -0.69612951	      1.26839645	     -8.61535419	     -8.27058621	     13.93118558	      2.72002007	     -2.70022432	     -3.22648018	      3.41341814
      0.11000000	     -1.21705028	      1.94392814	    -24.92049193	     -0.89998626	      0.90234087	     -0.34950022	     -6.34286894	     -0.75857905	     -0.75151598	      1.43857536	     15.41541210	     -0.31396847	     -0.69488947	      1.26435298	     -8.61045751	     -8.28008873	     13.93213308	      2.71941009	     -2.69836674	     -3.23525263	      3.41070132
      0.12000000	     -1.21598947	      1.94091789	    -24.94014225	     -0.89997958	      0.90233627	     -0.34939228	     -6.34530534	     -0.75229084	     -0.74975707	      1.43695860	     15.41537454	     -0.31434754	     -0.69436784	      1.25908902	     -8.60711201	     -8.29357344	     13.93356817	      2.71825195	     -2.69397145	     -3.24363555	      3.40912111
      0.13000000	     -1.23221455	      1.92003990	    -24.98311031	     -0.90003305	      0.90230657	     -0.34926674	     -6.33108287	     -0.72479038	     -0.67230986	      1.43081282	     15.41444168	     -0.32326925	     -0.63737048	      1.21647922	     -8.71820630	     -8.39837771	     14.00411117	      2.68164763	     -2.68724091	     -3.22289116	      3.44343291
      0.14000000	     -1.23119157	      1.91796653	    -25.00086820	     -0.90000820	      0.90229643	     -0.34916256	     -6.33475929	     -0.71922025	     -0.67346040	      1.42975480	     15.41431623	     -0.32371757	     -0.63968856	      1.21301642	     -8.71417434	     -8.40691431	     14.00478013	      2.68090582	     -2.67903864	     -3.23108653	      3.44065639
      0.15000000	     -1.22938318	      1.91525049	    -25.02039243	     -0.89997784	      0.90228868	     -0.34905400	     -6.33991733	     -0.71391130	     -0.67324773	      1.42867085	     15.41482244	     -0.32397552	     -0.64258632	      1.20869090	     -8.71080321	     -8.41828015	     14.00614194	      2.67965838	     -2.66963154	     -3.23860132	      3.43827768
      0.16000000	     -1.22720178	      1.91219059	    -25.04017670	     -0.89994562	      0.90228222	     -0.34894807	     -6.34589254	     -0.70905236	     -0.67133848	      1.42804596	     15.41595381	     -0.32403205	     -0.64524445	      1.20408725	     -8.70858295	     -8.43181897	     14.00844931	      2.67776406	     -2.66099034	     -3.24506862	      3.43684112
      0.17000000	     -1.22197629	      1.89333100	    -25.08430062	     -0.89996563	      0.90227664	     -0.34882708	     -6.36698139	     -0.69479276	     -0.59406525	      1.44702149	     15.42194371	     -0.32642201	     -0.62365862	      1.17773209	     -8.80587309	     -8.51065521	     14.08158618	      2.62589263	     -2.66961970	     -3.23455156	      3.46986428
      0.18000000	     -1.21942752	      1.89069020	    -25.10128911	     -0.89993891	      0.90227515	     -0.34873371	     -6.37185808	     -0.69009739	     -0.59483876	      1.44495014	     15.42130563	     -0.32682028	     -0.62699126	      1.17485820	     -8.80120060	     -8.52030882	     14.08176066	      2.62455904	     -2.66047425	     -3.24172052	      3.46745009
      0.19000000	     -1.21665481	      1.88770579	    -25.11930194	     -0.89991769	      0.90227268	     -0.34864611	     -6.37689723	     -0.68619331	     -0.59425655	      1.44336065	     15.42110284	     -0.32706327	     -0.62963142	      1.17167828	     -8.79682041	     -8.53211336	     14.08258121	      2.62259010	     -2.65330569	     -3.24809890	      3.46539371
      0.20000000	     -1.21340025	      1.88407603	    -25.13673203	     -0.89990526	      0.90227250	     -0.34856762	     -6.38182506	     -0.68215835	     -0.59181544	      1.44180762	     15.42123075	     -0.32714716	     -0.63156203	      1.16843129	     -8.79342825	     -8.54524455	     14.08408614	      2.61990460	     -2.64802944	     -3.25422703	      3.46358002
      0.21000000	     -1.20142652	      1.86229092	    -25.17213787	     -0.89994379	      0.90228876	     -0.34848506	     -6.40443614	     -0.66848670	     -0.52451730	      1.45025583	     15.42090882	     -0.33055864	     -0.62021812	      1.14435765	     -8.87207172	     -8.61441904	     14.14076762	      2.54794493	     -2.67043858	     -3.24318273	      3.48479120
      0.22000000	     -1.19968344	      1.85911828	    -25.18680838	     -0.89994017	      0.90228707	     -0.34842018	     -6.40652696	     -0.66407120	     -0.52457418	      1.44834426	     15.42008180	     -0.33093710	     -0.62305573	      1.14178391	     -8.86844026	     -8.62062317	     14.14097586	      2.54628379	     -2.66446074	     -3.25062467	      3.48105316
      0.23000000	     -1.19775178	      1.85536370	    -25.20281609	     -0.89994108	      0.90228701	     -0.34836008	     -6.40816865	     -0.65956376	     -0.52284903	      1.44558511	     15.41950103	     -0.33120331	     -0.62604725	      1.13880942	     -8.86577059	     -8.62706961	     14.14149381	      2.54416936	     -2.65947630	     -3.25751545	      3.47571898
      0.24000000	     -1.19579260	      1.85084745	    -25.22022605	     -0.89994972	      0.90228615	     -0.34830269	     -6.40908272	     -0.65461725	     -0.51905992	      1.44175283	     15.41914109	     -0.33136793	     -0.62939689	      1.13514708	     -8.86448306	     -8.63293409	     14.14241050	      2.54152070	     -2.65529615	     -3.26450015	      3.46826926
      0.25000000	     -1.19080050	      1.83840923	    -25.24962302	     -0.89998769	      0.90229871	     -0.34825873	     -6.40030488	     -0.64816037	     -0.47240364	      1.41265034	     15.41933452	     -0.33160609	     -0.63979634	      1.12566756	     -8.88879825	     -8.63512048	     14.15362214	      2.51916434	     -2.66391239	     -3.25831819	      3.43980095
      0.26000000	     -1.19009948	      1.83374206	    -25.26705068	     -0.90000225	      0.90229552	     -0.34820434	     -6.40138050	     -0.64177480	     -0.47191268	      1.41282963	     15.42004051	     -0.33179293	     -0.64267959	      1.12095495	     -8.88844323	     -8.63896352	     14.15451096	      2.51672805	     -2.65822942	     -3.26826564	      3.43608687
      0.27000000	     -1.19061749	      1.82390174	    -25.30270109	     -0.90001850	      0.90229503	     -0.34814481	     -6.39401289	     -0.63505756	     -0.43343309	      1.39745099	     15.42503671	     -0.33193284	     -0.65675463	      1.11243527	     -8.92400844	     -8.62655056	     14.16767073	      2.49361941	     -2.65056298	     -3.26423205	      3.41596956
      0.28000000	     -1.18974051	      1.81899208	    -25.32036987	     -0.90004652	      0.90229323	     -0.34809765	     -6.39449560	     -0.62871098	     -0.43228564	      1.39765575	     15.42552401	     -0.33204011	     -0.65890946	      1.10695904	     -8.92323697	     -8.62990501	     14.16840136	      2.49139483	     -2.64576563	     -3.27657771	      3.41184966
      0.29000000	     -1.18932934	      1.81032019	    -25.37842533	     -0.90009269	      0.90228855	     -0.34801096	     -6.38504015	     -0.62686361	     -0.34952693	      1.38502421	     15.43486122	     -0.33387075	     -0.67162286	      1.09817140	     -8.99214786	     -8.62389802	     14.19243382	      2.42818670	     -2.63806831	     -3.27898768	      3.43575020
